<mxfile host="app.diagrams.net" modified="2021-11-07T02:42:57.721Z" agent="5.0 (Macintosh; Intel Mac OS X 10_15_7) AppleWebKit/537.36 (KHTML, like Gecko) Chrome/95.0.4638.54 Safari/537.36" etag="o2MUaTMx4GBHxPBjhuNP" version="15.7.0" type="github">
  <diagram name="Page-1" id="2c0d36ab-eaac-3732-788b-9136903baeff">
    <mxGraphModel dx="2081" dy="961" grid="1" gridSize="10" guides="1" tooltips="1" connect="1" arrows="1" fold="1" page="1" pageScale="1.5" pageWidth="827" pageHeight="583" background="none" math="0" shadow="0">
      <root>
        <mxCell id="0" />
        <mxCell id="1" parent="0" />
        <mxCell id="0I2DTBCZ9cE8GuujWthC-199" value="" style="fillColor=#fff2cc;strokeColor=#d6b656;opacity=80;" vertex="1" parent="1">
          <mxGeometry x="2167" y="460" width="210" height="100" as="geometry" />
        </mxCell>
        <mxCell id="0I2DTBCZ9cE8GuujWthC-189" value="" style="fillColor=#e1d5e7;strokeColor=#9673a6;opacity=70;" vertex="1" parent="1">
          <mxGeometry x="1597" y="460" width="530" height="100" as="geometry" />
        </mxCell>
        <mxCell id="0I2DTBCZ9cE8GuujWthC-188" value="" style="fillColor=#d5e8d4;strokeColor=#82b366;opacity=60;" vertex="1" parent="1">
          <mxGeometry x="1027" y="460" width="530" height="100" as="geometry" />
        </mxCell>
        <mxCell id="0I2DTBCZ9cE8GuujWthC-185" value="" style="fillColor=#dae8fc;strokeColor=#6c8ebf;opacity=70;" vertex="1" parent="1">
          <mxGeometry x="107" y="320" width="2300" height="120" as="geometry" />
        </mxCell>
        <mxCell id="121" value="" style="fillColor=#F2931E;strokeColor=none;opacity=30;" parent="1" vertex="1">
          <mxGeometry x="105" y="460" width="902" height="100" as="geometry" />
        </mxCell>
        <mxCell id="2" value="administrator" style="rounded=1;fillColor=#23445D;gradientColor=none;strokeColor=none;fontColor=#FFFFFF;fontStyle=1;fontFamily=Tahoma;fontSize=14" parent="1" vertex="1">
          <mxGeometry x="1068.5" y="185.5" width="190" height="80" as="geometry" />
        </mxCell>
        <mxCell id="4" value="生活 BU" style="rounded=1;fillColor=#23445D;gradientColor=none;strokeColor=none;fontColor=#FFFFFF;fontStyle=1;fontFamily=Tahoma;fontSize=14" parent="1" vertex="1">
          <mxGeometry x="1779.9999999999998" y="345.5" width="190" height="80" as="geometry" />
        </mxCell>
        <mxCell id="9" value="" style="edgeStyle=elbowEdgeStyle;elbow=vertical;strokeWidth=2;rounded=0" parent="1" source="2" target="4" edge="1">
          <mxGeometry x="432" y="215.5" width="100" height="100" as="geometry">
            <mxPoint x="432" y="315.5" as="sourcePoint" />
            <mxPoint x="532" y="215.5" as="targetPoint" />
            <Array as="points">
              <mxPoint x="1415" y="300" />
            </Array>
          </mxGeometry>
        </mxCell>
        <mxCell id="12" value="学习 BU" style="rounded=1;fillColor=#23445D;gradientColor=none;strokeColor=none;fontColor=#FFFFFF;fontStyle=1;fontFamily=Tahoma;fontSize=14" parent="1" vertex="1">
          <mxGeometry x="1207" y="335.5" width="190" height="80" as="geometry" />
        </mxCell>
        <mxCell id="13" value="工作 BU" style="rounded=1;fillColor=#23445D;gradientColor=none;strokeColor=none;fontColor=#FFFFFF;fontStyle=1;fontFamily=Tahoma;fontSize=14" parent="1" vertex="1">
          <mxGeometry x="270" y="335.5" width="190" height="80" as="geometry" />
        </mxCell>
        <mxCell id="25" value="AI 基础 部" style="rounded=1;fillColor=#23445D;gradientColor=none;strokeColor=none;fontColor=#FFFFFF;fontStyle=1;fontFamily=Tahoma;fontSize=14" parent="1" vertex="1">
          <mxGeometry x="1062" y="485.5" width="130" height="60" as="geometry" />
        </mxCell>
        <mxCell id="26" value="CL 组" style="rounded=1;fillColor=#23445D;gradientColor=none;strokeColor=none;fontColor=#FFFFFF;fontStyle=1;fontFamily=Tahoma;fontSize=14" parent="1" vertex="1">
          <mxGeometry x="1062" y="575.5" width="130" height="60" as="geometry" />
        </mxCell>
        <mxCell id="27" value="RL 组" style="rounded=1;fillColor=#23445D;gradientColor=none;strokeColor=none;fontColor=#FFFFFF;fontStyle=1;fontFamily=Tahoma;fontSize=14" parent="1" vertex="1">
          <mxGeometry x="1062" y="665.5" width="130" height="60" as="geometry" />
        </mxCell>
        <mxCell id="28" value="Deep Learning 组" style="rounded=1;fillColor=#23445D;gradientColor=none;strokeColor=none;fontColor=#FFFFFF;fontStyle=1;fontFamily=Tahoma;fontSize=14" parent="1" vertex="1">
          <mxGeometry x="1062" y="755.5" width="130" height="60" as="geometry" />
        </mxCell>
        <mxCell id="29" value="计算机基础 部" style="rounded=1;fillColor=#23445D;gradientColor=none;strokeColor=none;fontColor=#FFFFFF;fontStyle=1;fontFamily=Tahoma;fontSize=14" parent="1" vertex="1">
          <mxGeometry x="1237" y="485.5" width="130" height="60" as="geometry" />
        </mxCell>
        <mxCell id="30" value="剑指offer 组" style="rounded=1;fillColor=#23445D;gradientColor=none;strokeColor=none;fontColor=#FFFFFF;fontStyle=1;fontFamily=Tahoma;fontSize=14" parent="1" vertex="1">
          <mxGeometry x="1237" y="575.5" width="130" height="60" as="geometry" />
        </mxCell>
        <mxCell id="31" value="python数据结构 组" style="rounded=1;fillColor=#23445D;gradientColor=none;strokeColor=none;fontColor=#FFFFFF;fontStyle=1;fontFamily=Tahoma;fontSize=14" parent="1" vertex="1">
          <mxGeometry x="1237" y="665.5" width="130" height="60" as="geometry" />
        </mxCell>
        <mxCell id="32" value="数据结构与算法 组" style="rounded=1;fillColor=#23445D;gradientColor=none;strokeColor=none;fontColor=#FFFFFF;fontStyle=1;fontFamily=Tahoma;fontSize=14" parent="1" vertex="1">
          <mxGeometry x="1237" y="755.5" width="130" height="60" as="geometry" />
        </mxCell>
        <mxCell id="33" value="兴趣语言 部" style="rounded=1;fillColor=#23445D;gradientColor=none;strokeColor=none;fontColor=#FFFFFF;fontStyle=1;fontFamily=Tahoma;fontSize=14" parent="1" vertex="1">
          <mxGeometry x="1412" y="485.5" width="130" height="60" as="geometry" />
        </mxCell>
        <mxCell id="34" value="科普 组" style="rounded=1;fillColor=#23445D;gradientColor=none;strokeColor=none;fontColor=#FFFFFF;fontStyle=1;fontFamily=Tahoma;fontSize=14" parent="1" vertex="1">
          <mxGeometry x="1412" y="575.5" width="130" height="60" as="geometry" />
        </mxCell>
        <mxCell id="35" value="历史 组" style="rounded=1;fillColor=#23445D;gradientColor=none;strokeColor=none;fontColor=#FFFFFF;fontStyle=1;fontFamily=Tahoma;fontSize=14" parent="1" vertex="1">
          <mxGeometry x="1412" y="665.5" width="130" height="60" as="geometry" />
        </mxCell>
        <mxCell id="36" value="英语 组" style="rounded=1;fillColor=#23445D;gradientColor=none;strokeColor=none;fontColor=#FFFFFF;fontStyle=1;fontFamily=Tahoma;fontSize=14" parent="1" vertex="1">
          <mxGeometry x="1412" y="860" width="130" height="60" as="geometry" />
        </mxCell>
        <mxCell id="37" value="法语 组" style="rounded=1;fillColor=#23445D;gradientColor=none;strokeColor=none;fontColor=#FFFFFF;fontStyle=1;fontFamily=Tahoma;fontSize=14" parent="1" vertex="1">
          <mxGeometry x="1412" y="950" width="130" height="60" as="geometry" />
        </mxCell>
        <mxCell id="44" value="后勤 部" style="rounded=1;fillColor=#23445D;gradientColor=none;strokeColor=none;fontColor=#FFFFFF;fontStyle=1;fontFamily=Tahoma;fontSize=14" parent="1" vertex="1">
          <mxGeometry x="1635" y="485.50000000000006" width="130" height="60" as="geometry" />
        </mxCell>
        <mxCell id="45" value="卫生 组" style="rounded=1;fillColor=#23445D;gradientColor=none;strokeColor=none;fontColor=#FFFFFF;fontStyle=1;fontFamily=Tahoma;fontSize=14" parent="1" vertex="1">
          <mxGeometry x="1635" y="575.5" width="130" height="60" as="geometry" />
        </mxCell>
        <mxCell id="46" value="饮食 组" style="rounded=1;fillColor=#23445D;gradientColor=none;strokeColor=none;fontColor=#FFFFFF;fontStyle=1;fontFamily=Tahoma;fontSize=14" parent="1" vertex="1">
          <mxGeometry x="1635" y="665.5" width="130" height="60" as="geometry" />
        </mxCell>
        <mxCell id="48" value="健身出游休闲 部" style="rounded=1;fillColor=#23445D;gradientColor=none;strokeColor=none;fontColor=#FFFFFF;fontStyle=1;fontFamily=Tahoma;fontSize=14" parent="1" vertex="1">
          <mxGeometry x="1810" y="485.50000000000006" width="130" height="60" as="geometry" />
        </mxCell>
        <mxCell id="49" value="上肢、核心 组" style="rounded=1;fillColor=#23445D;gradientColor=none;strokeColor=none;fontColor=#FFFFFF;fontStyle=1;fontFamily=Tahoma;fontSize=14" parent="1" vertex="1">
          <mxGeometry x="1810" y="575.5" width="130" height="60" as="geometry" />
        </mxCell>
        <mxCell id="50" value="下肢 组" style="rounded=1;fillColor=#23445D;gradientColor=none;strokeColor=none;fontColor=#FFFFFF;fontStyle=1;fontFamily=Tahoma;fontSize=14" parent="1" vertex="1">
          <mxGeometry x="1810" y="665.5" width="130" height="60" as="geometry" />
        </mxCell>
        <mxCell id="51" value="出游 组" style="rounded=1;fillColor=#23445D;gradientColor=none;strokeColor=none;fontColor=#FFFFFF;fontStyle=1;fontFamily=Tahoma;fontSize=14" parent="1" vertex="1">
          <mxGeometry x="1810" y="755.5000000000001" width="130" height="60" as="geometry" />
        </mxCell>
        <mxCell id="52" value="外交 部" style="rounded=1;fillColor=#23445D;gradientColor=none;strokeColor=none;fontColor=#FFFFFF;fontStyle=1;fontFamily=Tahoma;fontSize=14" parent="1" vertex="1">
          <mxGeometry x="1985" y="485.50000000000006" width="130" height="60" as="geometry" />
        </mxCell>
        <mxCell id="53" value="私人关系 组" style="rounded=1;fillColor=#23445D;gradientColor=none;strokeColor=none;fontColor=#FFFFFF;fontStyle=1;fontFamily=Tahoma;fontSize=14" parent="1" vertex="1">
          <mxGeometry x="1985" y="575.5" width="130" height="60" as="geometry" />
        </mxCell>
        <mxCell id="54" value="组内关系 组" style="rounded=1;fillColor=#23445D;gradientColor=none;strokeColor=none;fontColor=#FFFFFF;fontStyle=1;fontFamily=Tahoma;fontSize=14" parent="1" vertex="1">
          <mxGeometry x="1985" y="665.5" width="130" height="60" as="geometry" />
        </mxCell>
        <mxCell id="59" value="" style="edgeStyle=elbowEdgeStyle;elbow=vertical;strokeWidth=2;rounded=0" parent="1" source="2" target="12" edge="1">
          <mxGeometry x="442" y="225.5" width="100" height="100" as="geometry">
            <mxPoint x="957" y="275.5" as="sourcePoint" />
            <mxPoint x="1561.9999999999998" y="345.5" as="targetPoint" />
          </mxGeometry>
        </mxCell>
        <mxCell id="61" value="" style="edgeStyle=elbowEdgeStyle;elbow=vertical;strokeWidth=2;rounded=0" parent="1" source="2" target="13" edge="1">
          <mxGeometry x="72" y="135.5" width="100" height="100" as="geometry">
            <mxPoint x="72" y="235.5" as="sourcePoint" />
            <mxPoint x="172" y="135.5" as="targetPoint" />
          </mxGeometry>
        </mxCell>
        <mxCell id="70" value="" style="edgeStyle=elbowEdgeStyle;elbow=horizontal;strokeWidth=2;rounded=0" parent="1" source="25" target="26" edge="1">
          <mxGeometry x="622" y="165.5" width="100" height="100" as="geometry">
            <mxPoint x="622" y="265.5" as="sourcePoint" />
            <mxPoint x="722" y="165.5" as="targetPoint" />
            <Array as="points">
              <mxPoint x="1042" y="565.5" />
            </Array>
          </mxGeometry>
        </mxCell>
        <mxCell id="71" value="" style="edgeStyle=elbowEdgeStyle;elbow=horizontal;strokeWidth=2;rounded=0" parent="1" source="25" target="27" edge="1">
          <mxGeometry x="622" y="165.5" width="100" height="100" as="geometry">
            <mxPoint x="622" y="265.5" as="sourcePoint" />
            <mxPoint x="722" y="165.5" as="targetPoint" />
            <Array as="points">
              <mxPoint x="1042" y="605.5" />
            </Array>
          </mxGeometry>
        </mxCell>
        <mxCell id="72" value="" style="edgeStyle=elbowEdgeStyle;elbow=horizontal;strokeWidth=2;rounded=0" parent="1" source="25" target="28" edge="1">
          <mxGeometry x="622" y="165.5" width="100" height="100" as="geometry">
            <mxPoint x="622" y="265.5" as="sourcePoint" />
            <mxPoint x="722" y="165.5" as="targetPoint" />
            <Array as="points">
              <mxPoint x="1042" y="645.5" />
            </Array>
          </mxGeometry>
        </mxCell>
        <mxCell id="73" value="" style="edgeStyle=elbowEdgeStyle;elbow=horizontal;strokeWidth=2;rounded=0" parent="1" source="29" target="30" edge="1">
          <mxGeometry x="622" y="165.5" width="100" height="100" as="geometry">
            <mxPoint x="622" y="265.5" as="sourcePoint" />
            <mxPoint x="722" y="165.5" as="targetPoint" />
            <Array as="points">
              <mxPoint x="1212" y="565.5" />
            </Array>
          </mxGeometry>
        </mxCell>
        <mxCell id="74" value="" style="edgeStyle=elbowEdgeStyle;elbow=horizontal;strokeWidth=2;rounded=0" parent="1" source="29" target="31" edge="1">
          <mxGeometry x="622" y="165.5" width="100" height="100" as="geometry">
            <mxPoint x="622" y="265.5" as="sourcePoint" />
            <mxPoint x="722" y="165.5" as="targetPoint" />
            <Array as="points">
              <mxPoint x="1212" y="605.5" />
            </Array>
          </mxGeometry>
        </mxCell>
        <mxCell id="75" value="" style="edgeStyle=elbowEdgeStyle;elbow=horizontal;strokeWidth=2;rounded=0" parent="1" source="29" target="32" edge="1">
          <mxGeometry x="622" y="165.5" width="100" height="100" as="geometry">
            <mxPoint x="622" y="265.5" as="sourcePoint" />
            <mxPoint x="722" y="165.5" as="targetPoint" />
            <Array as="points">
              <mxPoint x="1212" y="645.5" />
            </Array>
          </mxGeometry>
        </mxCell>
        <mxCell id="76" value="" style="edgeStyle=elbowEdgeStyle;elbow=horizontal;strokeWidth=2;rounded=0" parent="1" source="33" target="34" edge="1">
          <mxGeometry x="622" y="165.5" width="100" height="100" as="geometry">
            <mxPoint x="622" y="265.5" as="sourcePoint" />
            <mxPoint x="722" y="165.5" as="targetPoint" />
            <Array as="points">
              <mxPoint x="1392" y="565.5" />
            </Array>
          </mxGeometry>
        </mxCell>
        <mxCell id="77" value="" style="edgeStyle=elbowEdgeStyle;elbow=horizontal;strokeWidth=2;rounded=0" parent="1" source="33" target="35" edge="1">
          <mxGeometry x="622" y="165.5" width="100" height="100" as="geometry">
            <mxPoint x="622" y="265.5" as="sourcePoint" />
            <mxPoint x="722" y="165.5" as="targetPoint" />
            <Array as="points">
              <mxPoint x="1392" y="605.5" />
            </Array>
          </mxGeometry>
        </mxCell>
        <mxCell id="78" value="" style="edgeStyle=elbowEdgeStyle;elbow=horizontal;strokeWidth=2;rounded=0" parent="1" source="33" target="36" edge="1">
          <mxGeometry x="622" y="165.5" width="100" height="100" as="geometry">
            <mxPoint x="622" y="265.5" as="sourcePoint" />
            <mxPoint x="722" y="165.5" as="targetPoint" />
            <Array as="points">
              <mxPoint x="1392" y="655.5" />
            </Array>
          </mxGeometry>
        </mxCell>
        <mxCell id="79" value="" style="edgeStyle=elbowEdgeStyle;elbow=horizontal;strokeWidth=2;rounded=0" parent="1" source="33" target="37" edge="1">
          <mxGeometry x="622" y="165.5" width="100" height="100" as="geometry">
            <mxPoint x="622" y="265.5" as="sourcePoint" />
            <mxPoint x="722" y="165.5" as="targetPoint" />
            <Array as="points">
              <mxPoint x="1392" y="695.5" />
            </Array>
          </mxGeometry>
        </mxCell>
        <mxCell id="84" value="" style="edgeStyle=elbowEdgeStyle;elbow=horizontal;strokeWidth=2;rounded=0;entryX=0;entryY=0.5;entryDx=0;entryDy=0;" parent="1" source="44" target="45" edge="1">
          <mxGeometry x="395" y="165.5" width="100" height="100" as="geometry">
            <mxPoint x="395" y="265.5" as="sourcePoint" />
            <mxPoint x="495" y="165.5" as="targetPoint" />
            <Array as="points">
              <mxPoint x="1615" y="575.5" />
            </Array>
          </mxGeometry>
        </mxCell>
        <mxCell id="85" value="" style="edgeStyle=elbowEdgeStyle;elbow=horizontal;strokeWidth=2;rounded=0" parent="1" source="44" target="46" edge="1">
          <mxGeometry x="395" y="165.5" width="100" height="100" as="geometry">
            <mxPoint x="395" y="265.5" as="sourcePoint" />
            <mxPoint x="495" y="165.5" as="targetPoint" />
            <Array as="points">
              <mxPoint x="1615" y="605.5" />
            </Array>
          </mxGeometry>
        </mxCell>
        <mxCell id="86" value="" style="edgeStyle=elbowEdgeStyle;elbow=horizontal;strokeWidth=2;rounded=0" parent="1" source="44" edge="1">
          <mxGeometry x="395" y="165.5" width="100" height="100" as="geometry">
            <mxPoint x="395" y="265.5" as="sourcePoint" />
            <mxPoint x="1635" y="785.5" as="targetPoint" />
            <Array as="points">
              <mxPoint x="1615" y="655.5" />
            </Array>
          </mxGeometry>
        </mxCell>
        <mxCell id="87" value="" style="edgeStyle=elbowEdgeStyle;elbow=horizontal;strokeWidth=2;rounded=0" parent="1" source="48" target="49" edge="1">
          <mxGeometry x="395" y="165.5" width="100" height="100" as="geometry">
            <mxPoint x="395" y="265.5" as="sourcePoint" />
            <mxPoint x="495" y="165.5" as="targetPoint" />
            <Array as="points">
              <mxPoint x="1785" y="565.5" />
            </Array>
          </mxGeometry>
        </mxCell>
        <mxCell id="88" value="" style="edgeStyle=elbowEdgeStyle;elbow=horizontal;strokeWidth=2;rounded=0" parent="1" source="48" target="50" edge="1">
          <mxGeometry x="395" y="165.5" width="100" height="100" as="geometry">
            <mxPoint x="395" y="265.5" as="sourcePoint" />
            <mxPoint x="495" y="165.5" as="targetPoint" />
            <Array as="points">
              <mxPoint x="1785" y="625.5" />
            </Array>
          </mxGeometry>
        </mxCell>
        <mxCell id="89" value="" style="edgeStyle=elbowEdgeStyle;elbow=horizontal;strokeWidth=2;rounded=0" parent="1" source="48" target="51" edge="1">
          <mxGeometry x="395" y="165.5" width="100" height="100" as="geometry">
            <mxPoint x="395" y="265.5" as="sourcePoint" />
            <mxPoint x="495" y="165.5" as="targetPoint" />
            <Array as="points">
              <mxPoint x="1785" y="655.5" />
            </Array>
          </mxGeometry>
        </mxCell>
        <mxCell id="90" value="" style="edgeStyle=elbowEdgeStyle;elbow=horizontal;strokeWidth=2;rounded=0" parent="1" source="52" target="53" edge="1">
          <mxGeometry x="395" y="165.5" width="100" height="100" as="geometry">
            <mxPoint x="395" y="265.5" as="sourcePoint" />
            <mxPoint x="495" y="165.5" as="targetPoint" />
            <Array as="points">
              <mxPoint x="1965" y="565.5" />
            </Array>
          </mxGeometry>
        </mxCell>
        <mxCell id="91" value="" style="edgeStyle=elbowEdgeStyle;elbow=horizontal;strokeWidth=2;rounded=0" parent="1" source="52" target="54" edge="1">
          <mxGeometry x="395" y="165.5" width="100" height="100" as="geometry">
            <mxPoint x="395" y="265.5" as="sourcePoint" />
            <mxPoint x="495" y="165.5" as="targetPoint" />
            <Array as="points">
              <mxPoint x="1965" y="605.5" />
            </Array>
          </mxGeometry>
        </mxCell>
        <mxCell id="100" value="" style="edgeStyle=elbowEdgeStyle;elbow=vertical;strokeWidth=2;rounded=0;exitX=0.5;exitY=1;exitDx=0;exitDy=0;" parent="1" source="12" target="25" edge="1">
          <mxGeometry x="449" y="135.5" width="100" height="100" as="geometry">
            <mxPoint x="449" y="235.5" as="sourcePoint" />
            <mxPoint x="549" y="135.5" as="targetPoint" />
            <Array as="points">
              <mxPoint x="1215" y="460" />
            </Array>
          </mxGeometry>
        </mxCell>
        <mxCell id="101" value="" style="edgeStyle=elbowEdgeStyle;elbow=vertical;strokeWidth=2;rounded=0" parent="1" source="12" target="29" edge="1">
          <mxGeometry x="449" y="135.5" width="100" height="100" as="geometry">
            <mxPoint x="449" y="235.5" as="sourcePoint" />
            <mxPoint x="549" y="135.5" as="targetPoint" />
          </mxGeometry>
        </mxCell>
        <mxCell id="102" value="" style="edgeStyle=elbowEdgeStyle;elbow=vertical;strokeWidth=2;rounded=0;exitX=0.5;exitY=1;exitDx=0;exitDy=0;" parent="1" source="12" target="33" edge="1">
          <mxGeometry x="449" y="135.5" width="100" height="100" as="geometry">
            <mxPoint x="449" y="235.5" as="sourcePoint" />
            <mxPoint x="549" y="135.5" as="targetPoint" />
            <Array as="points">
              <mxPoint x="1395" y="460" />
            </Array>
          </mxGeometry>
        </mxCell>
        <mxCell id="104" value="" style="edgeStyle=elbowEdgeStyle;elbow=vertical;strokeWidth=2;rounded=0" parent="1" source="4" target="48" edge="1">
          <mxGeometry x="395" y="145.5" width="100" height="100" as="geometry">
            <mxPoint x="395" y="245.5" as="sourcePoint" />
            <mxPoint x="495" y="145.5" as="targetPoint" />
          </mxGeometry>
        </mxCell>
        <mxCell id="105" value="" style="edgeStyle=elbowEdgeStyle;elbow=vertical;strokeWidth=2;rounded=0;exitX=0.5;exitY=1;exitDx=0;exitDy=0;" parent="1" source="4" target="44" edge="1">
          <mxGeometry x="395" y="145.5" width="100" height="100" as="geometry">
            <mxPoint x="395" y="245.5" as="sourcePoint" />
            <mxPoint x="495" y="145.5" as="targetPoint" />
            <Array as="points">
              <mxPoint x="1787" y="460" />
            </Array>
          </mxGeometry>
        </mxCell>
        <mxCell id="106" value="" style="edgeStyle=elbowEdgeStyle;elbow=vertical;strokeWidth=2;rounded=0;exitX=0.5;exitY=1;exitDx=0;exitDy=0;" parent="1" source="4" target="52" edge="1">
          <mxGeometry x="395" y="145.5" width="100" height="100" as="geometry">
            <mxPoint x="395" y="245.5" as="sourcePoint" />
            <mxPoint x="495" y="145.5" as="targetPoint" />
            <Array as="points">
              <mxPoint x="1957" y="460" />
            </Array>
          </mxGeometry>
        </mxCell>
        <mxCell id="0I2DTBCZ9cE8GuujWthC-127" value="科研 部" style="rounded=1;fillColor=#23445D;gradientColor=none;strokeColor=none;fontColor=#FFFFFF;fontStyle=1;fontFamily=Tahoma;fontSize=14" vertex="1" parent="1">
          <mxGeometry x="125" y="485.5" width="130" height="60" as="geometry" />
        </mxCell>
        <mxCell id="0I2DTBCZ9cE8GuujWthC-128" value="MBRL+CL 组" style="rounded=1;fillColor=#23445D;gradientColor=none;strokeColor=none;fontColor=#FFFFFF;fontStyle=1;fontFamily=Tahoma;fontSize=14" vertex="1" parent="1">
          <mxGeometry x="125" y="575.5" width="130" height="60" as="geometry" />
        </mxCell>
        <mxCell id="0I2DTBCZ9cE8GuujWthC-129" value="CL 组" style="rounded=1;fillColor=#23445D;gradientColor=none;strokeColor=none;fontColor=#FFFFFF;fontStyle=1;fontFamily=Tahoma;fontSize=14" vertex="1" parent="1">
          <mxGeometry x="125" y="665.5" width="130" height="60" as="geometry" />
        </mxCell>
        <mxCell id="0I2DTBCZ9cE8GuujWthC-131" value="项目 部" style="rounded=1;fillColor=#23445D;gradientColor=none;strokeColor=none;fontColor=#FFFFFF;fontStyle=1;fontFamily=Tahoma;fontSize=14" vertex="1" parent="1">
          <mxGeometry x="300" y="485.5" width="130" height="60" as="geometry" />
        </mxCell>
        <mxCell id="0I2DTBCZ9cE8GuujWthC-132" value="WQD 组" style="rounded=1;fillColor=#23445D;gradientColor=none;strokeColor=none;fontColor=#FFFFFF;fontStyle=1;fontFamily=Tahoma;fontSize=14" vertex="1" parent="1">
          <mxGeometry x="300" y="575.5" width="130" height="60" as="geometry" />
        </mxCell>
        <mxCell id="0I2DTBCZ9cE8GuujWthC-133" value="DPD 组" style="rounded=1;fillColor=#23445D;gradientColor=none;strokeColor=none;fontColor=#FFFFFF;fontStyle=1;fontFamily=Tahoma;fontSize=14" vertex="1" parent="1">
          <mxGeometry x="300" y="665.5" width="130" height="60" as="geometry" />
        </mxCell>
        <mxCell id="0I2DTBCZ9cE8GuujWthC-135" value="公共服务 部" style="rounded=1;fillColor=#23445D;gradientColor=none;strokeColor=none;fontColor=#FFFFFF;fontStyle=1;fontFamily=Tahoma;fontSize=14" vertex="1" parent="1">
          <mxGeometry x="475" y="485.5" width="130" height="60" as="geometry" />
        </mxCell>
        <mxCell id="0I2DTBCZ9cE8GuujWthC-136" value="招聘 组" style="rounded=1;fillColor=#23445D;gradientColor=none;strokeColor=none;fontColor=#FFFFFF;fontStyle=1;fontFamily=Tahoma;fontSize=14" vertex="1" parent="1">
          <mxGeometry x="475" y="575.5" width="130" height="60" as="geometry" />
        </mxCell>
        <mxCell id="0I2DTBCZ9cE8GuujWthC-137" value="日常琐事 组" style="rounded=1;fillColor=#23445D;gradientColor=none;strokeColor=none;fontColor=#FFFFFF;fontStyle=1;fontFamily=Tahoma;fontSize=14" vertex="1" parent="1">
          <mxGeometry x="475" y="665.5" width="130" height="60" as="geometry" />
        </mxCell>
        <mxCell id="0I2DTBCZ9cE8GuujWthC-142" value="" style="edgeStyle=elbowEdgeStyle;elbow=horizontal;strokeWidth=2;rounded=0" edge="1" parent="1" source="0I2DTBCZ9cE8GuujWthC-127" target="0I2DTBCZ9cE8GuujWthC-128">
          <mxGeometry x="-315" y="165.5" width="100" height="100" as="geometry">
            <mxPoint x="-315" y="265.5" as="sourcePoint" />
            <mxPoint x="-215" y="165.5" as="targetPoint" />
            <Array as="points">
              <mxPoint x="105" y="565.5" />
            </Array>
          </mxGeometry>
        </mxCell>
        <mxCell id="0I2DTBCZ9cE8GuujWthC-143" value="" style="edgeStyle=elbowEdgeStyle;elbow=horizontal;strokeWidth=2;rounded=0" edge="1" parent="1" source="0I2DTBCZ9cE8GuujWthC-127" target="0I2DTBCZ9cE8GuujWthC-129">
          <mxGeometry x="-315" y="165.5" width="100" height="100" as="geometry">
            <mxPoint x="-315" y="265.5" as="sourcePoint" />
            <mxPoint x="-215" y="165.5" as="targetPoint" />
            <Array as="points">
              <mxPoint x="105" y="605.5" />
            </Array>
          </mxGeometry>
        </mxCell>
        <mxCell id="0I2DTBCZ9cE8GuujWthC-145" value="" style="edgeStyle=elbowEdgeStyle;elbow=horizontal;strokeWidth=2;rounded=0" edge="1" parent="1" source="0I2DTBCZ9cE8GuujWthC-131" target="0I2DTBCZ9cE8GuujWthC-132">
          <mxGeometry x="-315" y="165.5" width="100" height="100" as="geometry">
            <mxPoint x="-315" y="265.5" as="sourcePoint" />
            <mxPoint x="-215" y="165.5" as="targetPoint" />
            <Array as="points">
              <mxPoint x="275" y="565.5" />
            </Array>
          </mxGeometry>
        </mxCell>
        <mxCell id="0I2DTBCZ9cE8GuujWthC-146" value="" style="edgeStyle=elbowEdgeStyle;elbow=horizontal;strokeWidth=2;rounded=0" edge="1" parent="1" source="0I2DTBCZ9cE8GuujWthC-131" target="0I2DTBCZ9cE8GuujWthC-133">
          <mxGeometry x="-315" y="165.5" width="100" height="100" as="geometry">
            <mxPoint x="-315" y="265.5" as="sourcePoint" />
            <mxPoint x="-215" y="165.5" as="targetPoint" />
            <Array as="points">
              <mxPoint x="275" y="605.5" />
            </Array>
          </mxGeometry>
        </mxCell>
        <mxCell id="0I2DTBCZ9cE8GuujWthC-148" value="" style="edgeStyle=elbowEdgeStyle;elbow=horizontal;strokeWidth=2;rounded=0" edge="1" parent="1" source="0I2DTBCZ9cE8GuujWthC-135" target="0I2DTBCZ9cE8GuujWthC-136">
          <mxGeometry x="-315" y="165.5" width="100" height="100" as="geometry">
            <mxPoint x="-315" y="265.5" as="sourcePoint" />
            <mxPoint x="-215" y="165.5" as="targetPoint" />
            <Array as="points">
              <mxPoint x="455" y="565.5" />
            </Array>
          </mxGeometry>
        </mxCell>
        <mxCell id="0I2DTBCZ9cE8GuujWthC-149" value="" style="edgeStyle=elbowEdgeStyle;elbow=horizontal;strokeWidth=2;rounded=0" edge="1" parent="1" source="0I2DTBCZ9cE8GuujWthC-135" target="0I2DTBCZ9cE8GuujWthC-137">
          <mxGeometry x="-315" y="165.5" width="100" height="100" as="geometry">
            <mxPoint x="-315" y="265.5" as="sourcePoint" />
            <mxPoint x="-215" y="165.5" as="targetPoint" />
            <Array as="points">
              <mxPoint x="455" y="605.5" />
            </Array>
          </mxGeometry>
        </mxCell>
        <mxCell id="0I2DTBCZ9cE8GuujWthC-154" value="" style="edgeStyle=elbowEdgeStyle;elbow=vertical;strokeWidth=2;rounded=0" edge="1" parent="1" target="0I2DTBCZ9cE8GuujWthC-127">
          <mxGeometry x="-488" y="155.5" width="100" height="100" as="geometry">
            <mxPoint x="365" y="435.5" as="sourcePoint" />
            <mxPoint x="-388" y="155.5" as="targetPoint" />
          </mxGeometry>
        </mxCell>
        <mxCell id="0I2DTBCZ9cE8GuujWthC-155" value="" style="edgeStyle=elbowEdgeStyle;elbow=vertical;strokeWidth=2;rounded=0" edge="1" parent="1" target="0I2DTBCZ9cE8GuujWthC-131">
          <mxGeometry x="-488" y="155.5" width="100" height="100" as="geometry">
            <mxPoint x="365" y="435.5" as="sourcePoint" />
            <mxPoint x="-388" y="155.5" as="targetPoint" />
          </mxGeometry>
        </mxCell>
        <mxCell id="0I2DTBCZ9cE8GuujWthC-156" value="" style="edgeStyle=elbowEdgeStyle;elbow=vertical;strokeWidth=2;rounded=0;exitX=0.5;exitY=1;exitDx=0;exitDy=0;" edge="1" parent="1" target="0I2DTBCZ9cE8GuujWthC-135" source="13">
          <mxGeometry x="-488" y="155.5" width="100" height="100" as="geometry">
            <mxPoint x="365" y="435.5" as="sourcePoint" />
            <mxPoint x="-388" y="155.5" as="targetPoint" />
            <Array as="points">
              <mxPoint x="455" y="460" />
            </Array>
          </mxGeometry>
        </mxCell>
        <mxCell id="0I2DTBCZ9cE8GuujWthC-160" value="博士 组" style="rounded=1;fillColor=#23445D;gradientColor=none;strokeColor=none;fontColor=#FFFFFF;fontStyle=1;fontFamily=Tahoma;fontSize=14" vertex="1" parent="1">
          <mxGeometry x="125" y="755.5" width="130" height="60" as="geometry" />
        </mxCell>
        <mxCell id="0I2DTBCZ9cE8GuujWthC-162" value="" style="edgeStyle=elbowEdgeStyle;elbow=horizontal;strokeWidth=2;rounded=0;entryX=0;entryY=0.5;entryDx=0;entryDy=0;" edge="1" parent="1" target="0I2DTBCZ9cE8GuujWthC-160">
          <mxGeometry x="-315" y="165.5" width="100" height="100" as="geometry">
            <mxPoint x="125" y="515.5" as="sourcePoint" />
            <mxPoint x="125" y="695.5" as="targetPoint" />
            <Array as="points">
              <mxPoint x="105" y="605.5" />
            </Array>
          </mxGeometry>
        </mxCell>
        <mxCell id="0I2DTBCZ9cE8GuujWthC-163" value="团队建设规划部" style="rounded=1;fillColor=#23445D;gradientColor=none;strokeColor=none;fontColor=#FFFFFF;fontStyle=1;fontFamily=Tahoma;fontSize=14" vertex="1" parent="1">
          <mxGeometry x="872" y="485.5" width="130" height="60" as="geometry" />
        </mxCell>
        <mxCell id="0I2DTBCZ9cE8GuujWthC-164" value="" style="edgeStyle=elbowEdgeStyle;elbow=horizontal;strokeWidth=2;rounded=0" edge="1" parent="1">
          <mxGeometry x="82" y="165.5" width="100" height="100" as="geometry">
            <mxPoint x="872" y="516" as="sourcePoint" />
            <mxPoint x="872" y="695.5" as="targetPoint" />
            <Array as="points">
              <mxPoint x="852" y="605.5" />
            </Array>
          </mxGeometry>
        </mxCell>
        <mxCell id="0I2DTBCZ9cE8GuujWthC-165" value="组内活动 组" style="rounded=1;fillColor=#23445D;gradientColor=none;strokeColor=none;fontColor=#FFFFFF;fontStyle=1;fontFamily=Tahoma;fontSize=14" vertex="1" parent="1">
          <mxGeometry x="872" y="575.5" width="130" height="60" as="geometry" />
        </mxCell>
        <mxCell id="0I2DTBCZ9cE8GuujWthC-166" value="" style="edgeStyle=elbowEdgeStyle;elbow=vertical;strokeWidth=2;rounded=0;exitX=0.5;exitY=1;exitDx=0;exitDy=0;entryX=0.5;entryY=0;entryDx=0;entryDy=0;" edge="1" parent="1" target="0I2DTBCZ9cE8GuujWthC-163">
          <mxGeometry x="-488" y="155.5" width="100" height="100" as="geometry">
            <mxPoint x="365" y="415.5" as="sourcePoint" />
            <mxPoint x="715" y="480" as="targetPoint" />
            <Array as="points">
              <mxPoint x="455" y="460" />
            </Array>
          </mxGeometry>
        </mxCell>
        <mxCell id="0I2DTBCZ9cE8GuujWthC-168" value="接口 部" style="rounded=1;fillColor=#23445D;gradientColor=none;strokeColor=none;fontColor=#FFFFFF;fontStyle=1;fontFamily=Tahoma;fontSize=14" vertex="1" parent="1">
          <mxGeometry x="675" y="485.5" width="130" height="60" as="geometry" />
        </mxCell>
        <mxCell id="0I2DTBCZ9cE8GuujWthC-169" value="国内外接口 组" style="rounded=1;fillColor=#23445D;gradientColor=none;strokeColor=none;fontColor=#FFFFFF;fontStyle=1;fontFamily=Tahoma;fontSize=14" vertex="1" parent="1">
          <mxGeometry x="675" y="575.5" width="130" height="60" as="geometry" />
        </mxCell>
        <mxCell id="0I2DTBCZ9cE8GuujWthC-170" value="其他接口 组" style="rounded=1;fillColor=#23445D;gradientColor=none;strokeColor=none;fontColor=#FFFFFF;fontStyle=1;fontFamily=Tahoma;fontSize=14" vertex="1" parent="1">
          <mxGeometry x="675" y="665.5" width="130" height="60" as="geometry" />
        </mxCell>
        <mxCell id="0I2DTBCZ9cE8GuujWthC-171" value="" style="edgeStyle=elbowEdgeStyle;elbow=horizontal;strokeWidth=2;rounded=0" edge="1" parent="1">
          <mxGeometry x="-115" y="165.5" width="100" height="100" as="geometry">
            <mxPoint x="675" y="515.5" as="sourcePoint" />
            <mxPoint x="675" y="695.5" as="targetPoint" />
            <Array as="points">
              <mxPoint x="655" y="605.5" />
            </Array>
          </mxGeometry>
        </mxCell>
        <mxCell id="0I2DTBCZ9cE8GuujWthC-172" value="" style="edgeStyle=elbowEdgeStyle;elbow=horizontal;strokeWidth=2;rounded=0" edge="1" parent="1">
          <mxGeometry x="-115" y="165.5" width="100" height="100" as="geometry">
            <mxPoint x="675" y="515.5" as="sourcePoint" />
            <mxPoint x="675" y="605.5" as="targetPoint" />
            <Array as="points">
              <mxPoint x="655" y="565.5" />
            </Array>
          </mxGeometry>
        </mxCell>
        <mxCell id="0I2DTBCZ9cE8GuujWthC-173" value="" style="edgeStyle=elbowEdgeStyle;elbow=horizontal;strokeWidth=2;rounded=0" edge="1" parent="1">
          <mxGeometry x="82" y="165.5" width="100" height="100" as="geometry">
            <mxPoint x="872" y="515.5" as="sourcePoint" />
            <mxPoint x="872" y="605.5" as="targetPoint" />
            <Array as="points">
              <mxPoint x="852" y="565.5" />
            </Array>
          </mxGeometry>
        </mxCell>
        <mxCell id="0I2DTBCZ9cE8GuujWthC-174" value="外部合作 组" style="rounded=1;fillColor=#23445D;gradientColor=none;strokeColor=none;fontColor=#FFFFFF;fontStyle=1;fontFamily=Tahoma;fontSize=14" vertex="1" parent="1">
          <mxGeometry x="872" y="665.5" width="130" height="60" as="geometry" />
        </mxCell>
        <mxCell id="0I2DTBCZ9cE8GuujWthC-175" value="对外工作关系 组" style="rounded=1;fillColor=#23445D;gradientColor=none;strokeColor=none;fontColor=#FFFFFF;fontStyle=1;fontFamily=Tahoma;fontSize=14" vertex="1" parent="1">
          <mxGeometry x="872" y="755.5" width="130" height="60" as="geometry" />
        </mxCell>
        <mxCell id="0I2DTBCZ9cE8GuujWthC-176" value="" style="edgeStyle=elbowEdgeStyle;elbow=horizontal;strokeWidth=2;rounded=0" edge="1" parent="1">
          <mxGeometry x="82" y="165" width="100" height="100" as="geometry">
            <mxPoint x="872" y="515.5" as="sourcePoint" />
            <mxPoint x="872" y="790" as="targetPoint" />
            <Array as="points">
              <mxPoint x="852" y="605" />
            </Array>
          </mxGeometry>
        </mxCell>
        <mxCell id="0I2DTBCZ9cE8GuujWthC-177" value="总结规划 组" style="rounded=1;fillColor=#23445D;gradientColor=none;strokeColor=none;fontColor=#FFFFFF;fontStyle=1;fontFamily=Tahoma;fontSize=14" vertex="1" parent="1">
          <mxGeometry x="872" y="845.5" width="130" height="60" as="geometry" />
        </mxCell>
        <mxCell id="0I2DTBCZ9cE8GuujWthC-178" value="" style="edgeStyle=elbowEdgeStyle;elbow=horizontal;strokeWidth=2;rounded=0;entryX=0;entryY=0.5;entryDx=0;entryDy=0;" edge="1" parent="1" target="0I2DTBCZ9cE8GuujWthC-177">
          <mxGeometry x="82" y="165" width="100" height="100" as="geometry">
            <mxPoint x="872" y="515.5" as="sourcePoint" />
            <mxPoint x="872" y="790" as="targetPoint" />
            <Array as="points">
              <mxPoint x="852" y="605" />
            </Array>
          </mxGeometry>
        </mxCell>
        <mxCell id="0I2DTBCZ9cE8GuujWthC-179" value="PRML 组" style="rounded=1;fillColor=#23445D;gradientColor=none;strokeColor=none;fontColor=#FFFFFF;fontStyle=1;fontFamily=Tahoma;fontSize=14" vertex="1" parent="1">
          <mxGeometry x="1062" y="845.5" width="130" height="60" as="geometry" />
        </mxCell>
        <mxCell id="0I2DTBCZ9cE8GuujWthC-181" value="" style="edgeStyle=elbowEdgeStyle;elbow=horizontal;strokeWidth=2;rounded=0;entryX=0;entryY=0.5;entryDx=0;entryDy=0;exitX=0;exitY=0.5;exitDx=0;exitDy=0;" edge="1" parent="1" source="25" target="0I2DTBCZ9cE8GuujWthC-179">
          <mxGeometry x="622" y="170" width="100" height="100" as="geometry">
            <mxPoint x="1062" y="520" as="sourcePoint" />
            <mxPoint x="1062" y="790" as="targetPoint" />
            <Array as="points">
              <mxPoint x="1042" y="650" />
            </Array>
          </mxGeometry>
        </mxCell>
        <mxCell id="0I2DTBCZ9cE8GuujWthC-182" value="其他 组" style="rounded=1;fillColor=#23445D;gradientColor=none;strokeColor=none;fontColor=#FFFFFF;fontStyle=1;fontFamily=Tahoma;fontSize=14" vertex="1" parent="1">
          <mxGeometry x="1635" y="755.5" width="130" height="60" as="geometry" />
        </mxCell>
        <mxCell id="0I2DTBCZ9cE8GuujWthC-186" value="动画 组" style="rounded=1;fillColor=#23445D;gradientColor=none;strokeColor=none;fontColor=#FFFFFF;fontStyle=1;fontFamily=Tahoma;fontSize=14" vertex="1" parent="1">
          <mxGeometry x="1412" y="760" width="130" height="60" as="geometry" />
        </mxCell>
        <mxCell id="0I2DTBCZ9cE8GuujWthC-187" value="" style="edgeStyle=elbowEdgeStyle;elbow=vertical;strokeWidth=2;rounded=0;exitX=0.5;exitY=1;exitDx=0;exitDy=0;" edge="1" parent="1" source="13">
          <mxGeometry x="-286" y="160" width="100" height="100" as="geometry">
            <mxPoint x="567" y="420" as="sourcePoint" />
            <mxPoint x="737" y="480" as="targetPoint" />
            <Array as="points">
              <mxPoint x="557" y="460" />
            </Array>
          </mxGeometry>
        </mxCell>
        <mxCell id="0I2DTBCZ9cE8GuujWthC-190" value="战略规划 BU" style="rounded=1;fillColor=#23445D;gradientColor=none;strokeColor=none;fontColor=#FFFFFF;fontStyle=1;fontFamily=Tahoma;fontSize=14" vertex="1" parent="1">
          <mxGeometry x="2177" y="345.5" width="190" height="80" as="geometry" />
        </mxCell>
        <mxCell id="0I2DTBCZ9cE8GuujWthC-191" value="" style="edgeStyle=elbowEdgeStyle;elbow=vertical;strokeWidth=2;rounded=0;entryX=0.5;entryY=0;entryDx=0;entryDy=0;exitX=0.5;exitY=1;exitDx=0;exitDy=0;" edge="1" parent="1" source="2" target="0I2DTBCZ9cE8GuujWthC-190">
          <mxGeometry x="442" y="225.5" width="100" height="100" as="geometry">
            <mxPoint x="1173.5" y="275.5" as="sourcePoint" />
            <mxPoint x="1885" y="355.5" as="targetPoint" />
            <Array as="points">
              <mxPoint x="1777" y="300" />
              <mxPoint x="1577" y="210" />
              <mxPoint x="1425" y="310" />
            </Array>
          </mxGeometry>
        </mxCell>
        <mxCell id="0I2DTBCZ9cE8GuujWthC-192" value="战略规划 部" style="rounded=1;fillColor=#23445D;gradientColor=none;strokeColor=none;fontColor=#FFFFFF;fontStyle=1;fontFamily=Tahoma;fontSize=14" vertex="1" parent="1">
          <mxGeometry x="2208" y="481.00000000000006" width="130" height="60" as="geometry" />
        </mxCell>
        <mxCell id="0I2DTBCZ9cE8GuujWthC-193" value="战略思考 组" style="rounded=1;fillColor=#23445D;gradientColor=none;strokeColor=none;fontColor=#FFFFFF;fontStyle=1;fontFamily=Tahoma;fontSize=14" vertex="1" parent="1">
          <mxGeometry x="2208" y="571" width="130" height="60" as="geometry" />
        </mxCell>
        <mxCell id="0I2DTBCZ9cE8GuujWthC-194" value="经验总结 组" style="rounded=1;fillColor=#23445D;gradientColor=none;strokeColor=none;fontColor=#FFFFFF;fontStyle=1;fontFamily=Tahoma;fontSize=14" vertex="1" parent="1">
          <mxGeometry x="2208" y="661" width="130" height="60" as="geometry" />
        </mxCell>
        <mxCell id="0I2DTBCZ9cE8GuujWthC-195" value="" style="edgeStyle=elbowEdgeStyle;elbow=horizontal;strokeWidth=2;rounded=0" edge="1" parent="1" target="0I2DTBCZ9cE8GuujWthC-193">
          <mxGeometry x="618" y="161" width="100" height="100" as="geometry">
            <mxPoint x="2208" y="511" as="sourcePoint" />
            <mxPoint x="718" y="161" as="targetPoint" />
            <Array as="points">
              <mxPoint x="2188" y="561" />
            </Array>
          </mxGeometry>
        </mxCell>
        <mxCell id="0I2DTBCZ9cE8GuujWthC-196" value="" style="edgeStyle=elbowEdgeStyle;elbow=horizontal;strokeWidth=2;rounded=0" edge="1" parent="1" target="0I2DTBCZ9cE8GuujWthC-194">
          <mxGeometry x="618" y="161" width="100" height="100" as="geometry">
            <mxPoint x="2208" y="511" as="sourcePoint" />
            <mxPoint x="718" y="161" as="targetPoint" />
            <Array as="points">
              <mxPoint x="2188" y="601" />
            </Array>
          </mxGeometry>
        </mxCell>
        <mxCell id="0I2DTBCZ9cE8GuujWthC-197" value="战略预判 组" style="rounded=1;fillColor=#23445D;gradientColor=none;strokeColor=none;fontColor=#FFFFFF;fontStyle=1;fontFamily=Tahoma;fontSize=14" vertex="1" parent="1">
          <mxGeometry x="2208" y="751" width="130" height="60" as="geometry" />
        </mxCell>
        <mxCell id="0I2DTBCZ9cE8GuujWthC-198" value="" style="edgeStyle=elbowEdgeStyle;elbow=horizontal;strokeWidth=2;rounded=0;entryX=0;entryY=0.5;entryDx=0;entryDy=0;exitX=0;exitY=0.5;exitDx=0;exitDy=0;" edge="1" parent="1" source="0I2DTBCZ9cE8GuujWthC-192" target="0I2DTBCZ9cE8GuujWthC-197">
          <mxGeometry x="628" y="171" width="100" height="100" as="geometry">
            <mxPoint x="2208" y="515.5" as="sourcePoint" />
            <mxPoint x="2218" y="701" as="targetPoint" />
            <Array as="points">
              <mxPoint x="2188" y="655.5" />
            </Array>
          </mxGeometry>
        </mxCell>
        <mxCell id="0I2DTBCZ9cE8GuujWthC-200" value="" style="edgeStyle=elbowEdgeStyle;elbow=vertical;strokeWidth=2;rounded=0;entryX=0.5;entryY=0;entryDx=0;entryDy=0;" edge="1" parent="1" target="0I2DTBCZ9cE8GuujWthC-192">
          <mxGeometry x="800" y="135.5" width="100" height="100" as="geometry">
            <mxPoint x="2273" y="420" as="sourcePoint" />
            <mxPoint x="2455" y="475.5" as="targetPoint" />
            <Array as="points">
              <mxPoint x="2362" y="450" />
            </Array>
          </mxGeometry>
        </mxCell>
        <mxCell id="0I2DTBCZ9cE8GuujWthC-201" value="出游 组" style="rounded=1;fillColor=#23445D;gradientColor=none;strokeColor=none;fontColor=#FFFFFF;fontStyle=1;fontFamily=Tahoma;fontSize=14" vertex="1" parent="1">
          <mxGeometry x="1810" y="845.5000000000001" width="130" height="60" as="geometry" />
        </mxCell>
        <mxCell id="0I2DTBCZ9cE8GuujWthC-203" value="" style="edgeStyle=elbowEdgeStyle;elbow=horizontal;strokeWidth=2;rounded=0;entryX=0;entryY=0.5;entryDx=0;entryDy=0;exitX=0;exitY=0.5;exitDx=0;exitDy=0;" edge="1" parent="1" source="48" target="0I2DTBCZ9cE8GuujWthC-201">
          <mxGeometry x="395" y="175.5" width="100" height="100" as="geometry">
            <mxPoint x="1810" y="525.5" as="sourcePoint" />
            <mxPoint x="1810" y="795.5000000000001" as="targetPoint" />
            <Array as="points">
              <mxPoint x="1785" y="665.5" />
            </Array>
          </mxGeometry>
        </mxCell>
      </root>
    </mxGraphModel>
  </diagram>
</mxfile>
